<svg width="81" height="81" viewBox="0 0 81 81" fill="none" xmlns="http://www.w3.org/2000/svg">
<path d="M35.1482 32.4904C34.0573 33.1758 33.115 34.0729 32.3768 35.1288C31.6387 36.1847 31.1197 37.3778 30.8507 38.6377C30.5816 39.8976 30.5679 41.1987 30.8104 42.4639C31.0528 43.7292 31.5465 44.933 32.2622 46.0042C32.978 47.0754 33.9012 47.9922 34.9774 48.7004C36.0536 49.4086 37.2608 49.8939 38.5278 50.1275C39.7948 50.361 41.0957 50.3382 42.3537 50.0603C43.6116 49.7824 44.8011 49.2551 45.8518 48.5096C46.9426 47.8242 47.885 46.9271 48.6232 45.8712C49.3613 44.8153 49.8803 43.6222 50.1493 42.3623C50.4184 41.1024 50.4321 39.8013 50.1896 38.5361C49.9472 37.2708 49.4535 36.067 48.7378 34.9958C48.022 33.9246 47.0988 33.0078 46.0226 32.2996C44.9464 31.5914 43.7391 31.1061 42.4722 30.8725C41.2052 30.639 39.9043 30.6618 38.6463 30.9397C37.3884 31.2176 36.1989 31.7449 35.1482 32.4904ZM60.8766 20.1234C59.9364 19.1833 58.7973 18.442 57.5498 17.9538C54.2772 16.6701 47.1355 16.7243 42.525 16.7786C41.7837 16.7786 41.0967 16.7967 40.5 16.7967C39.9033 16.7967 39.1982 16.7967 38.4388 16.7786C33.8283 16.7243 26.7228 16.652 23.4502 17.9538C22.2027 18.442 21.0817 19.1833 20.1234 20.1234C19.1652 21.0636 18.442 22.2027 17.9538 23.4502C16.6701 26.7228 16.7424 33.8826 16.7786 38.4931C16.7786 39.2344 16.7967 39.9214 16.7967 40.5C16.7967 41.0786 16.7967 41.7656 16.7786 42.5069C16.7424 47.1174 16.6701 54.2772 17.9538 57.5498C18.442 58.7973 19.1833 59.9183 20.1234 60.8766C21.0636 61.8348 22.2027 62.558 23.4502 63.0462C26.7228 64.3299 33.8645 64.2757 38.475 64.2214C39.2163 64.2214 39.9033 64.2033 40.5 64.2033C41.0967 64.2033 41.8018 64.2033 42.5612 64.2214C47.1716 64.2757 54.2772 64.348 57.5498 63.0462C58.7973 62.558 59.9183 61.8167 60.8766 60.8766C61.8348 59.9364 62.558 58.7973 63.0462 57.5498C64.348 54.2953 64.2757 47.1716 64.2214 42.5431C64.2214 41.7837 64.2033 41.0786 64.2033 40.4819C64.2033 39.8853 64.2033 39.1982 64.2214 38.4208C64.2757 33.8103 64.348 26.6866 63.0462 23.4141C62.558 22.1665 61.8167 21.0455 60.8766 20.0873V20.1234ZM48.7446 28.1692C52.0172 30.3569 54.2772 33.756 55.0547 37.6071C55.8321 41.4583 55.0185 45.4721 52.8308 48.7446C51.746 50.3719 50.3538 51.746 48.7446 52.8308C47.1355 53.9156 45.3094 54.6569 43.3929 55.0366C39.5417 55.796 35.5279 55.0004 32.2554 52.8127C28.9828 50.625 26.7228 47.2259 25.9453 43.3748C25.1679 39.5237 25.9815 35.5098 28.1511 32.2373C30.3208 28.9647 33.7379 26.7047 37.5891 25.9272C41.4402 25.1498 45.454 25.9634 48.7266 28.133H48.7446V28.1692ZM54.0241 27.9342C53.4636 27.5545 53.0116 27.0121 52.7404 26.3792C52.4692 25.7464 52.415 25.0594 52.5415 24.3723C52.6681 23.6853 53.0116 23.0886 53.4817 22.6004C53.9518 22.1123 54.5846 21.7868 55.2536 21.6603C55.9225 21.5337 56.6277 21.5879 57.2605 21.8592C57.8933 22.1304 58.4357 22.5643 58.8154 23.1248C59.1951 23.6853 59.394 24.3542 59.394 25.0413C59.394 25.4933 59.3036 25.9453 59.1408 26.3612C58.9781 26.777 58.7069 27.1567 58.3996 27.4821C58.0922 27.8076 57.6944 28.0607 57.2786 28.2415C56.8627 28.4223 56.4107 28.5127 55.9587 28.5127C55.2717 28.5127 54.6027 28.3138 54.0422 27.9342H54.0241ZM81 11.5714C81 5.18906 75.8109 0 69.4286 0H11.5714C5.18906 0 0 5.18906 0 11.5714V69.4286C0 75.8109 5.18906 81 11.5714 81H69.4286C75.8109 81 81 75.8109 81 69.4286V11.5714ZM64.5469 64.5469C61.1658 67.9279 57.0616 68.9946 52.433 69.2297C47.6598 69.5009 33.3402 69.5009 28.567 69.2297C23.9384 68.9946 19.8342 67.9279 16.4531 64.5469C13.0721 61.1658 12.0054 57.0616 11.7884 52.433C11.5172 47.6598 11.5172 33.3402 11.7884 28.567C12.0234 23.9384 13.0721 19.8342 16.4531 16.4531C19.8342 13.0721 23.9565 12.0054 28.567 11.7884C33.3402 11.5172 47.6598 11.5172 52.433 11.7884C57.0616 12.0234 61.1658 13.0721 64.5469 16.4531C67.9279 19.8342 68.9946 23.9384 69.2116 28.567C69.4828 33.3221 69.4828 47.6237 69.2116 52.415C68.9766 57.0435 67.9279 61.1478 64.5469 64.5288V64.5469Z" fill="#2F3E46"/>
</svg>
