<svg width="81" height="81" viewBox="0 0 81 81" fill="none" xmlns="http://www.w3.org/2000/svg">
<path d="M72 0C74.3869 0 76.6761 0.948211 78.364 2.63604C80.0518 4.32387 81 6.61305 81 9V72C81 74.3869 80.0518 76.6761 78.364 78.364C76.6761 80.0518 74.3869 81 72 81H9C6.61305 81 4.32387 80.0518 2.63604 78.364C0.948211 76.6761 0 74.3869 0 72V9C0 6.61305 0.948211 4.32387 2.63604 2.63604C4.32387 0.948211 6.61305 0 9 0H72ZM69.75 69.75V45.9C69.75 42.0093 68.2044 38.2779 65.4533 35.5267C62.7021 32.7756 58.9707 31.23 55.08 31.23C51.255 31.23 46.8 33.57 44.64 37.08V32.085H32.085V69.75H44.64V47.565C44.64 44.1 47.43 41.265 50.895 41.265C52.5659 41.265 54.1683 41.9287 55.3498 43.1102C56.5313 44.2917 57.195 45.8941 57.195 47.565V69.75H69.75ZM17.46 25.02C19.465 25.02 21.388 24.2235 22.8057 22.8057C24.2235 21.388 25.02 19.465 25.02 17.46C25.02 13.275 21.645 9.855 17.46 9.855C15.443 9.855 13.5087 10.6562 12.0825 12.0825C10.6562 13.5087 9.855 15.443 9.855 17.46C9.855 21.645 13.275 25.02 17.46 25.02ZM23.715 69.75V32.085H11.25V69.75H23.715Z" fill="#2F3E46"/>
</svg>
