<svg width="81" height="65" viewBox="0 0 81 65" fill="none" xmlns="http://www.w3.org/2000/svg">
<path d="M8.1 65C5.8725 65 3.9663 64.2051 2.3814 62.6153C0.7965 61.0255 0.0027 59.1121 0 56.875V8.125C0 5.89062 0.7938 3.97854 2.3814 2.38875C3.969 0.798957 5.8752 0.00270833 8.1 0H72.9C75.1275 0 77.035 0.796249 78.6226 2.38875C80.2102 3.98125 81.0027 5.89333 81 8.125V56.875C81 59.1094 80.2075 61.0228 78.6226 62.6153C77.0377 64.2078 75.1302 65.0027 72.9 65H8.1ZM40.5 36.5625L72.9 16.25V8.125L40.5 28.4375L8.1 8.125V16.25L40.5 36.5625Z" fill="#2F3E46"/>
</svg>
